<?xml version="1.0" encoding="utf-8"?>
<!-- Generator: Adobe Illustrator 17.1.0, SVG Export Plug-In . SVG Version: 6.00 Build 0)  -->
<!DOCTYPE svg PUBLIC "-//W3C//DTD SVG 1.1//EN" "http://www.w3.org/Graphics/SVG/1.1/DTD/svg11.dtd">
<svg version="1.1" id="Layer_1" xmlns="http://www.w3.org/2000/svg" xmlns:xlink="http://www.w3.org/1999/xlink" x="0px" y="0px"
	 viewBox="0 0 792 176" enable-background="new 0 0 792 176" xml:space="preserve">
<g>
	<g>
		<path d="M90.418,48.038c-0.137,0.959-0.548,1.644-1.646,1.644c-0.274,0-0.548,0-1.234-0.137c-1.645-0.274-4.936-0.822-8.089-0.822
			c-3.153,0-5.073,0.411-6.443,1.508c-1.234,1.097-1.646,2.879-1.646,5.483v7.541H87.95c1.234,0,2.193,0.822,2.193,2.057v12.75
			c0,1.234-0.959,1.92-2.193,1.92H71.36v53.194c0,1.234-0.959,2.057-2.331,2.057H49.699c-1.371,0-2.331-0.822-2.331-2.057V79.982
			H36.811c-1.371,0-2.331-0.686-2.331-1.92v-12.75c0-1.234,0.96-2.057,2.331-2.057h10.557v-8.638
			c0-14.943,7.677-22.484,24.267-22.484c10.694,0,16.863,1.646,18.92,2.331c1.371,0.411,1.645,1.646,1.508,2.331L90.418,48.038z"/>
		<path d="M129.94,137.016c-31.533,0-35.509-16.452-35.509-37.702c0-21.251,3.976-37.84,35.509-37.84
			c31.533,0,35.646,16.589,35.646,37.84C165.587,120.563,161.474,137.016,129.94,137.016z M129.94,77.24
			c-10.693,0-11.242,6.307-11.242,22.073c0,15.629,0.549,21.936,11.242,21.936c10.831,0,11.243-6.307,11.243-21.936
			C141.183,83.547,140.771,77.24,129.94,77.24z"/>
		<path d="M214.845,79.022c-7.677,0-14.396,0.822-15.629,1.097v53.058c0,1.234-0.822,2.057-2.193,2.057h-19.468
			c-1.234,0-2.194-0.822-2.194-2.057V72.441c0-4.936,4.387-6.443,12.477-8.226c6.581-1.371,15.766-2.468,24.267-2.468h2.331
			c1.234,0,1.919,0.273,2.468,0.822c0.412,0.411,0.686,1.097,0.686,2.193v11.105C217.587,77.515,217.587,79.022,214.845,79.022z"/>
		<path d="M335.766,135.233h-19.468c-1.371,0-2.194-0.822-2.194-2.057V86.562c0-7.266-3.702-9.597-9.048-9.597
			c-4.387,0-9.597,0.96-10.831,1.233v54.978c0,1.234-0.959,2.057-2.331,2.057h-19.468c-1.371,0-2.194-0.822-2.194-2.057V86.562
			c0-7.266-3.153-9.597-8.5-9.597c-4.25,0-10.146,0.96-11.517,1.233v54.978c0,1.234-0.822,2.057-2.193,2.057h-19.468
			c-1.371,0-2.194-0.822-2.194-2.057V72.578c0-5.072,4.251-6.58,12.613-8.362c6.718-1.371,17.138-2.742,25.775-2.742
			c8.637,0,14.533,2.057,18.372,4.524c2.605-0.96,14.258-4.524,25.912-4.524c17.549,0,28.928,3.839,28.928,21.662v50.041
			C337.96,134.411,337.137,135.233,335.766,135.233z"/>
		<path d="M376.619,133.588c0,0.96-0.548,1.097-1.097,1.371c-1.508,0.686-4.798,1.646-9.734,1.646
			c-8.226,0-13.71-3.976-13.71-14.121V36.11c0-1.098,0.686-1.782,1.645-2.057l7.403-1.92c0.96-0.274,1.782,0.549,1.782,1.646v88.43
			c0,4.936,3.428,5.621,6.169,5.621c1.919,0,3.839-0.274,4.799-0.549l0.548-0.137c0.411,0,0.96,0.137,1.097,0.96l0.96,4.661
			C376.619,133.314,376.619,133.451,376.619,133.588z"/>
		<path d="M430.334,134.959c-3.976,0.96-10.557,2.057-17.822,2.057c-11.791,0-31.396-0.411-31.396-22.621
			c0-18.098,9.734-19.331,23.719-21.525l25.912-4.25v-6.443c0-4.388-0.138-7.952-4.936-9.734c-2.605-1.097-6.443-1.646-12.476-1.646
			c-10.557,0-19.606,2.605-25.364,3.977c-1.371,0.274-1.919,0.137-2.193-0.96l-1.234-6.17c-0.274-1.233,0.959-1.782,1.371-1.919
			c4.387-1.646,16.178-4.25,28.653-4.25c9.734,0,16.041,1.371,20.017,3.565c6.992,3.702,7.13,10.146,7.13,16.589v39.348
			C441.714,130.572,439.794,132.766,430.334,134.959z M430.883,97.257l-26.734,4.525c-6.032,1.097-11.791,2.057-11.791,12.064
			c0,13.71,11.242,14.67,20.291,14.67c6.032,0,12.477-0.822,18.234-2.742V97.257z"/>
		<path d="M464.842,65.241c3.686-1.046,14.478-3.768,23.141-3.768c22.759,0,29.066,11.653,29.066,37.566
			c0,26.734-7.267,37.976-32.081,37.976c-9.734,0-18.646-1.645-23.17-3.153c-6.855-2.331-7.13-5.758-7.13-10.831V35.836
			c0-1.097,0.549-1.508,1.646-1.782l7.403-1.92c1.234-0.411,1.782,0.823,1.782,1.646v23.855 M486.2,70.385
			c-7.54,0-18.234,2.605-20.702,3.291v52.234c1.508,0.549,8.775,2.468,19.194,2.468c15.767,0,21.113-7.403,21.113-29.064
			C505.806,77.24,501.967,70.385,486.2,70.385z"/>
		<path d="M549.8,137.016c-12.065,0-22.484-3.701-24.267-4.387c-0.686-0.274-1.371-0.686-0.96-2.194l1.233-5.21
			c0.275-0.959,0.686-1.782,2.194-1.233c0.411,0.137,10.419,3.976,22.073,3.976c11.653,0,18.371-3.701,18.371-12.064
			c0-11.379-8.774-10.968-19.469-12.613c-6.718-1.097-23.855-2.331-23.855-20.428c0-17.687,15.767-21.388,27.832-21.388
			c11.79,0,20.977,2.468,22.484,2.879c0.96,0.274,1.371,0.822,1.233,1.646l-0.959,6.169c-0.138,0.823-0.549,1.097-1.509,1.097
			c-1.919-0.274-12.064-2.604-20.153-2.604c-9.871,0-18.098,2.742-18.098,11.379c0,9.323,9.323,10.42,17.823,11.517
			c12.339,1.646,25.638,2.605,25.638,21.251C579.413,132.629,565.703,137.016,549.8,137.016z"/>
	</g>
	<g>
		<path fill-rule="evenodd" clip-rule="evenodd" d="M758.519,50.46c-1.566,5.291-5.203,9.391-8.106,13.894
			c-7.206,11.18-14.561,22.264-21.854,33.389c-0.153,0.233-0.265,0.494-0.455,0.852c2.424,1.658,4.861,3.232,7.185,4.962
			c0.985,0.734,1.968,1.666,2.536,2.73c1.413,2.651,0.549,5.738-1.806,7.688c-8.358,6.922-16.801,13.748-25,20.855
			c-4.35,3.771-9.548,1.635-11.084-2.995c-5.864-17.674-11.964-35.269-17.979-52.892c-0.101-0.297-0.236-0.583-0.479-1.172
			c-0.455,1.277-0.825,2.278-1.168,3.289c-5.651,16.627-11.3,33.254-16.948,49.882c-0.196,0.58-0.359,1.172-0.573,1.745
			c-1.568,4.197-6.474,5.579-9.952,2.758c-3.435-2.786-6.818-5.637-10.227-8.458c-5.047-4.18-10.072-8.386-15.148-12.53
			c-4.102-3.353-3.931-8.016,0.466-11.009c2.497-1.7,4.986-3.411,7.59-5.192c-0.981-1.478-1.897-2.872-2.829-4.255
			c-8.698-12.896-17.362-25.812-26.115-38.67c-3.146-4.62-2.011-12.186,3.473-14.987c3.021-1.543,5.889-3.38,8.862-5.019
			c3.427-1.89,6.875-1.872,10.255,0.155c16.981,10.186,33.963,20.371,50.923,30.59c0.999,0.603,1.709,0.66,2.752,0.027
			c16.863-10.221,33.755-20.396,50.645-30.572c3.613-2.178,7.25-2.206,10.913-0.076c2.793,1.623,5.571,3.281,8.439,4.765
			c2.974,1.538,4.371,4.167,5.42,7.113c0.107,0.301,0.179,0.612,0.267,0.919C758.519,48.984,758.519,49.723,758.519,50.46z
			 M749.184,54.646c-0.053-0.077-0.106-0.156-0.157-0.234c-19.904,5.846-39.808,11.692-60.03,17.632
			c11.447,7.725,22.64,15.278,33.93,22.896C731.737,81.419,740.459,68.033,749.184,54.646z M674.399,71.97
			c-20.015-5.911-39.706-11.727-59.395-17.542c-0.047,0.082-0.093,0.164-0.14,0.247c8.907,13.209,17.813,26.417,26.78,39.715
			C652.556,86.921,663.343,79.538,674.399,71.97z M657.143,129.732c4.406-13.047,8.752-25.911,13.096-38.774
			c-0.43,0.174-0.682,0.436-0.891,0.727c-4.199,5.854-8.395,11.712-12.592,17.567c-0.572,0.799-1.121,1.615-1.735,2.382
			c-2.646,3.305-7.718,3.166-10.149-0.299c-1.69-2.406-3.31-4.86-5.039-7.409c-2.553,1.746-5.021,3.433-7.601,5.197
			C640.577,116.027,648.773,122.808,657.143,129.732z M613.146,46.768c14.313,4.246,28.338,8.408,42.361,12.568
			c-0.118-0.35-0.303-0.557-0.53-0.693c-9.638-5.799-19.276-11.597-28.926-17.379c-1.108-0.664-2.26-0.585-3.379,0.055
			c-2.273,1.298-4.551,2.588-6.823,3.884C615.04,45.663,614.237,46.135,613.146,46.768z M663.606,88.036
			c-0.081-0.081-0.162-0.162-0.243-0.243c-5.943,4.069-11.886,8.14-17.912,12.266c1.604,2.354,3.098,4.547,4.66,6.84
			C654.716,100.463,659.161,94.249,663.606,88.036z"/>
	</g>
</g>
</svg>
