<svg width="262" height="66" viewBox="0 0 262 66" fill="none" xmlns="http://www.w3.org/2000/svg">
<rect x="0.5" y="0.500092" width="20" height="20" fill="#E4007F" stroke="black"/>
<rect x="0.5" y="20.5001" width="20" height="19" fill="#FFF100" stroke="black"/>
<rect x="0.5" y="39.5001" width="20" height="20" fill="#FFF100" stroke="black"/>
<rect x="20.5" y="0.500092" width="19" height="20" fill="#FFF100" stroke="black"/>
<rect x="20.5" y="20.5001" width="19" height="19" fill="#FFF100" stroke="black"/>
<rect x="20.5" y="39.5001" width="19" height="20" fill="white" stroke="black"/>
<rect x="39.5" y="0.500092" width="20" height="20" fill="#FFF100" stroke="black"/>
<rect x="39.5" y="20.5001" width="20" height="19" fill="#2F5DAA" stroke="black"/>
<rect x="39.5" y="39.5001" width="20" height="20" fill="#FFF100" stroke="black"/>
<path d="M198.661 58.5141H193.792V49.124C193.792 47.1374 193.689 45.8553 193.481 45.2778C193.273 44.6888 192.932 44.2326 192.458 43.9092C191.996 43.5858 191.436 43.4241 190.778 43.4241C189.935 43.4241 189.178 43.6551 188.508 44.1171C187.838 44.5791 187.376 45.1912 187.122 45.9535C186.88 46.7158 186.759 48.1249 186.759 50.1808V58.5141H181.89V40.115H186.412V42.8177C188.017 40.7387 190.039 39.6992 192.476 39.6992C193.55 39.6992 194.532 39.8956 195.421 40.2883C196.31 40.6694 196.98 41.1603 197.431 41.7609C197.893 42.3615 198.21 43.0429 198.384 43.8052C198.568 44.5675 198.661 45.659 198.661 47.0796V58.5141Z" fill="black"/>
<path d="M158.364 59.7268L163.925 60.4025C164.018 61.0493 164.232 61.4939 164.566 61.7365C165.028 62.083 165.756 62.2562 166.749 62.2562C168.02 62.2562 168.973 62.0657 169.608 61.6845C170.035 61.4304 170.359 61.0204 170.578 60.4544C170.728 60.0502 170.803 59.3052 170.803 58.2195V55.5342C169.348 57.5208 167.512 58.5141 165.294 58.5141C162.822 58.5141 160.865 57.4688 159.421 55.3782C158.289 53.7266 157.723 51.6707 157.723 49.2106C157.723 46.1268 158.462 43.7706 159.941 42.142C161.431 40.5135 163.279 39.6992 165.485 39.6992C167.76 39.6992 169.637 40.6983 171.115 42.6964V40.115H175.672V56.6256C175.672 58.797 175.493 60.4198 175.135 61.4939C174.777 62.5681 174.274 63.4112 173.627 64.0234C172.981 64.6355 172.114 65.1148 171.029 65.4613C169.955 65.8078 168.592 65.9811 166.94 65.9811C163.822 65.9811 161.61 65.444 160.305 64.3699C158.999 63.3073 158.347 61.9559 158.347 60.3158C158.347 60.1541 158.353 59.9578 158.364 59.7268ZM162.713 48.9334C162.713 50.8853 163.088 52.3175 163.839 53.23C164.601 54.1309 165.537 54.5813 166.645 54.5813C167.835 54.5813 168.84 54.1193 169.66 53.1953C170.48 52.2598 170.89 50.8795 170.89 49.0547C170.89 47.1489 170.497 45.7341 169.712 44.8101C168.927 43.8861 167.933 43.4241 166.732 43.4241C165.566 43.4241 164.601 43.8803 163.839 44.7927C163.088 45.6936 162.713 47.0738 162.713 48.9334Z" fill="black"/>
<path d="M147.52 37.6203V33.1158H152.389V37.6203H147.52ZM147.52 58.5141V40.1151H152.389V58.5141H147.52Z" fill="black"/>
<path d="M124.636 53.2646L129.522 52.5196C129.73 53.4667 130.151 54.1886 130.787 54.6853C131.422 55.1703 132.311 55.4129 133.455 55.4129C134.714 55.4129 135.661 55.1819 136.296 54.7199C136.723 54.3965 136.937 53.9634 136.937 53.4205C136.937 53.0509 136.821 52.7449 136.59 52.5023C136.348 52.2713 135.805 52.0576 134.962 51.8613C131.035 50.995 128.546 50.2039 127.495 49.4878C126.04 48.4945 125.312 47.1143 125.312 45.3471C125.312 43.7532 125.941 42.4135 127.2 41.3278C128.459 40.2421 130.411 39.6992 133.056 39.6992C135.574 39.6992 137.445 40.1092 138.669 40.9293C139.894 41.7493 140.737 42.9621 141.199 44.5675L136.608 45.4164C136.411 44.7003 136.036 44.1517 135.482 43.7706C134.939 43.3894 134.159 43.1988 133.143 43.1988C131.861 43.1988 130.942 43.3779 130.388 43.7359C130.018 43.99 129.834 44.3192 129.834 44.7234C129.834 45.0699 129.995 45.3645 130.319 45.607C130.758 45.9304 132.271 46.3866 134.858 46.9757C137.457 47.5647 139.27 48.2866 140.298 49.1413C141.314 50.0075 141.823 51.2145 141.823 52.7622C141.823 54.4485 141.118 55.898 139.709 57.1107C138.3 58.3235 136.215 58.9298 133.455 58.9298C130.948 58.9298 128.962 58.4217 127.495 57.4053C126.04 56.3889 125.087 55.0086 124.636 53.2646Z" fill="black"/>
<path d="M115.835 52.6582L120.686 53.4725C120.063 55.2512 119.075 56.6083 117.724 57.5439C116.384 58.4679 114.704 58.9298 112.682 58.9298C109.483 58.9298 107.115 57.8846 105.579 55.794C104.366 54.1193 103.76 52.0057 103.76 49.4531C103.76 46.404 104.557 44.0189 106.151 42.298C107.745 40.5655 109.76 39.6992 112.197 39.6992C114.935 39.6992 117.094 40.6059 118.677 42.4192C120.259 44.221 121.016 46.9872 120.946 50.7179H108.75C108.784 52.1616 109.177 53.2877 109.928 54.0962C110.678 54.8931 111.614 55.2916 112.734 55.2916C113.497 55.2916 114.138 55.0837 114.657 54.6679C115.177 54.2521 115.57 53.5822 115.835 52.6582ZM116.113 47.738C116.078 46.3289 115.714 45.2605 115.021 44.5329C114.328 43.7937 113.485 43.4241 112.492 43.4241C111.429 43.4241 110.551 43.811 109.858 44.5848C109.165 45.3587 108.825 46.4097 108.836 47.738H116.113Z" fill="black"/>
<path d="M78.1379 33.1158H87.5107C89.6243 33.1158 91.2356 33.2775 92.3444 33.6009C93.8343 34.0398 95.1106 34.8194 96.1732 35.9398C97.2357 37.0601 98.0442 38.4346 98.5986 40.0631C99.153 41.6801 99.4302 43.6782 99.4302 46.0575C99.4302 48.148 99.1704 49.9498 98.6506 51.4629C98.0154 53.3109 97.1087 54.8066 95.9306 55.95C95.0413 56.8163 93.8401 57.4919 92.327 57.977C91.1951 58.3351 89.6821 58.5141 87.7879 58.5141H78.1379V33.1158ZM83.2661 37.4124V54.2349H87.0949C88.5271 54.2349 89.5608 54.154 90.1961 53.9923C91.0277 53.7844 91.7149 53.4321 92.2577 52.9355C92.8121 52.4388 93.2626 51.6246 93.6091 50.4927C93.9556 49.3492 94.1288 47.7958 94.1288 45.8323C94.1288 43.8688 93.9556 42.3615 93.6091 41.3105C93.2626 40.2594 92.7775 39.4394 92.1538 38.8504C91.5301 38.2613 90.7389 37.8628 89.7803 37.6549C89.0642 37.4932 87.6609 37.4124 85.5703 37.4124H83.2661Z" fill="black"/>
<path d="M256.088 19.5425L260.939 20.3567C260.316 22.1354 259.328 23.4925 257.977 24.4281C256.637 25.3521 254.956 25.8141 252.935 25.8141C249.736 25.8141 247.368 24.7688 245.832 22.6783C244.619 21.0035 244.013 18.8899 244.013 16.3373C244.013 13.2882 244.81 10.9031 246.404 9.18217C247.998 7.44968 250.013 6.58344 252.45 6.58344C255.187 6.58344 257.347 7.4901 258.93 9.30344C260.512 11.1052 261.268 13.8714 261.199 17.6021H249.002C249.037 19.0458 249.43 20.1719 250.18 20.9804C250.931 21.7774 251.867 22.1758 252.987 22.1758C253.749 22.1758 254.39 21.9679 254.91 21.5521C255.43 21.1363 255.823 20.4664 256.088 19.5425ZM256.365 14.6222C256.331 13.2131 255.967 12.1447 255.274 11.4171C254.581 10.6779 253.738 10.3083 252.745 10.3083C251.682 10.3083 250.804 10.6952 250.111 11.4691C249.418 12.2429 249.077 13.2939 249.089 14.6222H256.365Z" fill="black"/>
<path d="M229.324 25.3985L221.909 6.99942H227.02L230.485 16.3895L231.49 19.5253C231.755 18.7284 231.923 18.2029 231.992 17.9488C232.154 17.429 232.327 16.9093 232.512 16.3895L236.011 6.99942H241.018L233.707 25.3985H229.324Z" fill="black"/>
<path d="M212.97 4.50447V0H217.839V4.50447H212.97ZM212.97 25.3983V6.99926H217.839V25.3983H212.97Z" fill="black"/>
<path d="M190.085 20.1488L194.971 19.4039C195.179 20.351 195.6 21.0728 196.236 21.5695C196.871 22.0546 197.76 22.2971 198.904 22.2971C200.163 22.2971 201.11 22.0661 201.745 21.6041C202.172 21.2807 202.386 20.8476 202.386 20.3048C202.386 19.9352 202.27 19.6291 202.039 19.3865C201.797 19.1555 201.254 18.9419 200.411 18.7455C196.484 17.8793 193.995 17.0881 192.944 16.372C191.489 15.3787 190.761 13.9985 190.761 12.2314C190.761 10.6375 191.39 9.29767 192.649 8.21197C193.908 7.12628 195.86 6.58344 198.505 6.58344C201.023 6.58344 202.894 6.99346 204.118 7.8135C205.343 8.63355 206.186 9.84629 206.648 11.4517L202.057 12.3006C201.86 11.5846 201.485 11.0359 200.931 10.6548C200.388 10.2736 199.608 10.0831 198.592 10.0831C197.31 10.0831 196.391 10.2621 195.837 10.6201C195.467 10.8742 195.283 11.2034 195.283 11.6077C195.283 11.9542 195.444 12.2487 195.768 12.4912C196.207 12.8146 197.72 13.2708 200.307 13.8599C202.906 14.4489 204.719 15.1708 205.747 16.0255C206.763 16.8917 207.271 18.0987 207.271 19.6464C207.271 21.3327 206.567 22.7822 205.158 23.995C203.749 25.2077 201.664 25.8141 198.904 25.8141C196.397 25.8141 194.411 25.3059 192.944 24.2895C191.489 23.2731 190.536 21.8929 190.085 20.1488Z" fill="black"/>
<path d="M181.215 25.3983H176.347V6.99923H180.869V9.61529C181.643 8.37945 182.336 7.56518 182.948 7.17248C183.572 6.77978 184.276 6.58344 185.061 6.58344C186.17 6.58344 187.239 6.88951 188.267 7.50165L186.759 11.7463C185.939 11.215 185.177 10.9493 184.472 10.9493C183.791 10.9493 183.213 11.1399 182.74 11.521C182.266 11.8906 181.891 12.5663 181.614 13.548C181.348 14.5298 181.215 16.5857 181.215 19.7157V25.3983Z" fill="black"/>
<path d="M166.041 19.5425L170.892 20.3567C170.268 22.1354 169.281 23.4925 167.929 24.4281C166.589 25.3521 164.909 25.8141 162.888 25.8141C159.688 25.8141 157.321 24.7688 155.784 22.6783C154.572 21.0035 153.965 18.8899 153.965 16.3373C153.965 13.2882 154.762 10.9031 156.356 9.18217C157.95 7.44968 159.966 6.58344 162.403 6.58344C165.14 6.58344 167.3 7.4901 168.882 9.30344C170.464 11.1052 171.221 13.8714 171.152 17.6021H158.955C158.99 19.0458 159.382 20.1719 160.133 20.9804C160.884 21.7774 161.819 22.1758 162.94 22.1758C163.702 22.1758 164.343 21.9679 164.863 21.5521C165.382 21.1363 165.775 20.4664 166.041 19.5425ZM166.318 14.6222C166.283 13.2131 165.92 12.1447 165.227 11.4171C164.534 10.6779 163.69 10.3083 162.697 10.3083C161.634 10.3083 160.757 10.6952 160.064 11.4691C159.371 12.2429 159.03 13.2939 159.042 14.6222H166.318Z" fill="black"/>
<path d="M122.037 6.99923H126.524V9.51134C128.13 7.5594 130.041 6.58344 132.259 6.58344C133.437 6.58344 134.459 6.82598 135.325 7.31108C136.192 7.79618 136.902 8.5296 137.456 9.51134C138.265 8.5296 139.137 7.79618 140.072 7.31108C141.008 6.82598 142.007 6.58344 143.07 6.58344C144.421 6.58344 145.564 6.86063 146.5 7.41503C147.435 7.95788 148.134 8.7606 148.596 9.82319C148.931 10.6086 149.099 11.8791 149.099 13.6347V25.3983H144.23V14.8821C144.23 13.0572 144.063 11.8791 143.728 11.3478C143.277 10.6548 142.584 10.3083 141.649 10.3083C140.967 10.3083 140.326 10.5162 139.726 10.932C139.125 11.3478 138.692 11.9599 138.426 12.7684C138.161 13.5654 138.028 14.8301 138.028 16.5626V25.3983H133.16V15.3152C133.16 13.5249 133.073 12.3699 132.9 11.8502C132.727 11.3305 132.455 10.9435 132.086 10.6894C131.727 10.4353 131.237 10.3083 130.613 10.3083C129.862 10.3083 129.187 10.5104 128.586 10.9147C127.985 11.3189 127.552 11.9022 127.287 12.6645C127.032 13.4268 126.905 14.6915 126.905 16.4586V25.3983H122.037V6.99923Z" fill="black"/>
<path d="M89.0519 6.99923H93.539V9.51134C95.1445 7.5594 97.056 6.58344 99.2736 6.58344C100.452 6.58344 101.474 6.82598 102.34 7.31108C103.206 7.79618 103.917 8.5296 104.471 9.51134C105.28 8.5296 106.152 7.79618 107.087 7.31108C108.023 6.82598 109.022 6.58344 110.084 6.58344C111.436 6.58344 112.579 6.86063 113.515 7.41503C114.45 7.95788 115.149 8.7606 115.611 9.82319C115.946 10.6086 116.113 11.8791 116.113 13.6347V25.3983H111.245V14.8821C111.245 13.0572 111.078 11.8791 110.743 11.3478C110.292 10.6548 109.599 10.3083 108.664 10.3083C107.982 10.3083 107.341 10.5162 106.741 10.932C106.14 11.3478 105.707 11.9599 105.441 12.7684C105.176 13.5654 105.043 14.8301 105.043 16.5626V25.3983H100.174V15.3152C100.174 13.5249 100.088 12.3699 99.9146 11.8502C99.7413 11.3305 99.4699 10.9435 99.1003 10.6894C98.7423 10.4353 98.2514 10.3083 97.6277 10.3083C96.877 10.3083 96.2013 10.5104 95.6007 10.9147C95.0001 11.3189 94.567 11.9022 94.3013 12.6645C94.0472 13.4268 93.9202 14.6915 93.9202 16.4586V25.3983H89.0519V6.99923Z" fill="black"/>
<path d="M78 25.3984V9.15527e-05H83.1282V25.3984H78Z" fill="black"/>
</svg>
